<svg width="1000" height="313" viewBox="0 0 1000 313" fill="none" xmlns="http://www.w3.org/2000/svg">
<g clip-path="url(#clip0_6_202)">
<mask id="mask0_6_202" style="mask-type:luminance" maskUnits="userSpaceOnUse" x="0" y="0" width="1000" height="313">
<path d="M1000 0H0V312.363H1000V0Z" fill="white"/>
</mask>
<g mask="url(#mask0_6_202)">
<path d="M416.156 0L382.242 55.132H142.801C135.5 55.132 127.885 61.0669 125.766 68.3293L113.676 110.264H205.998L205.841 110.889L172.319 165.396H97.7392L55.3462 312.363H0L80.0753 34.5161C85.5706 15.462 105.59 0 124.745 0H416.235H416.156Z" fill="url(#paint0_linear_6_202)"/>
<path d="M1000 110.264L971.816 156.104C971.816 156.104 971.816 156.182 971.739 156.26C970.559 158.212 968.991 159.93 967.184 161.336C964.044 163.835 960.198 165.396 956.508 165.396H910.662L884.205 257.231H939.629L927.541 299.166C925.42 306.428 917.804 312.363 910.504 312.363H834.511C822.578 312.363 815.748 302.759 819.124 290.889L883.263 68.2517C885.382 60.9893 892.998 55.0544 900.298 55.0544H942.455L926.597 110.186H1000.08L1000 110.264Z" fill="#E4E8F1"/>
<path d="M707.41 165.396L702.152 183.748H794.473L782.385 225.682C780.263 232.945 772.648 238.881 765.347 238.881H686.214L680.956 257.231H810.252L798.163 299.167C796.044 306.428 788.429 312.363 781.128 312.363H631.182C619.249 312.363 612.42 302.759 615.795 290.889L661.72 131.661C665.175 119.791 677.578 110.186 689.513 110.186H852.646L840.555 152.121C838.436 159.383 830.821 165.318 823.52 165.318H707.49L707.41 165.396Z" fill="#E4E8F1"/>
<path d="M641.151 -0.000446344H472.758C465.457 -0.000446344 457.844 5.93445 455.723 13.1969L443.634 55.1315L427.776 110.264L411.916 165.396L406.657 183.747L401.24 202.489L390.72 238.878L385.462 257.231L369.604 312.363H569.634C570.734 312.363 571.753 312.283 572.853 312.127C583.765 310.645 594.284 301.663 597.424 290.887L607.161 257.231L612.42 238.878L622.939 202.489L628.357 183.747L630.555 176.25C632.517 169.378 631.261 162.038 627.1 156.181C622.939 150.402 621.683 142.984 623.646 136.112L631.105 110.185L646.963 55.0535L656.697 21.3964C660.151 9.52662 653.242 -0.078537 641.31 -0.078537L641.151 -0.000446344ZM572.853 183.747L567.436 202.489L556.916 238.878L555.424 244.111C553.305 251.373 545.69 257.308 538.389 257.308H440.807L446.068 238.957L456.587 202.567L462.002 183.825L463.494 178.593C465.615 171.33 473.231 165.396 480.531 165.396H578.112L572.853 183.747ZM579.291 97.0662C577.17 104.329 569.555 110.264 562.254 110.264H483.121L495.212 68.3289C497.331 61.0664 504.946 55.1315 512.247 55.1315H591.38L579.291 97.0662Z" fill="url(#paint1_linear_6_202)"/>
<path d="M401.161 116.512C398.415 112.607 393.704 110.186 387.737 110.186H245.564C239.599 110.186 233.552 112.607 228.529 116.512C225.703 118.698 223.19 121.353 221.306 124.321C221.071 124.633 220.835 124.945 220.678 125.336C219.501 127.366 218.48 129.475 217.852 131.739L169.571 299.243C168.551 302.915 169.022 306.195 170.749 308.537C172.476 310.88 175.302 312.363 178.992 312.363H221.62L237.478 257.231H311.508L295.65 312.363H337.809C341.499 312.363 345.186 310.88 348.249 308.537C351.31 306.195 353.744 302.836 354.844 299.243L403.124 131.739C404.851 125.804 403.988 120.416 401.161 116.59V116.512ZM327.289 202.489H253.259L263.935 165.396H337.965L327.289 202.489Z" fill="#E4E8F1"/>
</g>
</g>
<defs>
<linearGradient id="paint0_linear_6_202" x1="57.6229" y1="213.5" x2="350.381" y2="-80.8123" gradientUnits="userSpaceOnUse">
<stop stop-color="#0061FF"/>
<stop offset="0.32" stop-color="#0467FF"/>
<stop offset="0.42" stop-color="#1079FF"/>
<stop offset="0.63" stop-color="#31AAFF"/>
<stop offset="0.88" stop-color="#60EFFF"/>
</linearGradient>
<linearGradient id="paint1_linear_6_202" x1="449.128" y1="229.977" x2="651.614" y2="26.4152" gradientUnits="userSpaceOnUse">
<stop stop-color="#0061FF"/>
<stop offset="0.32" stop-color="#0467FF"/>
<stop offset="0.42" stop-color="#1079FF"/>
<stop offset="0.63" stop-color="#31AAFF"/>
<stop offset="0.88" stop-color="#60EFFF"/>
</linearGradient>
<clipPath id="clip0_6_202">
<rect width="1000" height="312.363" fill="white"/>
</clipPath>
</defs>
</svg>
